<?xml version="1.0" encoding="utf-8"?>
<!-- Generator: Adobe Illustrator 19.0.0, SVG Export Plug-In . SVG Version: 6.00 Build 0)  -->
<svg version="1.1" id="Layer_1" xmlns="http://www.w3.org/2000/svg" xmlns:xlink="http://www.w3.org/1999/xlink" x="0px" y="0px"
	 viewBox="-283 375 44 44" style="enable-background:new -283 375 44 44;" xml:space="preserve">
<style type="text/css">
	.st0{fill:#888888;}
</style>
<path class="st0" d="M-261,375c-12.2,0-22,9.8-22,22s9.8,22,22,22c12.2,0,22-9.8,22-22S-248.8,375-261,375z M-249,398
	c0,0.6-0.4,1-1,1h-8.5c-0.3,0-0.5,0.2-0.5,0.5v8.5c0,0.6-0.4,1-1,1h-2c-0.6,0-1-0.4-1-1v-8.5c0-0.3-0.2-0.5-0.5-0.5h-8.5
	c-0.6,0-1-0.4-1-1v-2c0-0.6,0.4-1,1-1h8.5c0.3,0,0.5-0.2,0.5-0.5V386c0-0.6,0.4-1,1-1h2c0.6,0,1,0.4,1,1v8.5c0,0.3,0.2,0.5,0.5,0.5
	h8.5c0.6,0,1,0.4,1,1V398z"/>
</svg>
