<?xml version="1.0" encoding="utf-8"?>
<!-- Generator: Adobe Illustrator 19.0.0, SVG Export Plug-In . SVG Version: 6.00 Build 0)  -->
<svg version="1.1" id="Layer_1" xmlns="http://www.w3.org/2000/svg" xmlns:xlink="http://www.w3.org/1999/xlink" x="0px" y="0px"
	 viewBox="0 0 500 500" style="enable-background:new 0 0 500 500;" xml:space="preserve">
<style type="text/css">
	.st0{fill:#394173;}
</style>
<path id="XMLID_17_" class="st0" d="M431,174.3c16,30,11.7,60.2,11,79.7c-3.7,106.3-84.1,183-185.2,184
	c-100.6,1-180.1-78.3-180.1-178.7c0-71.7,43.3-128.7,104-158c0,0-4.1-7.5-4.1-7.5c-9.3-11-21.3-29.7-29.9-41.2c0,0-3.5,2.2-12.3,7.5
	C115.9,71.3,105.1,79.6,90,96.5C42,150,30.7,195,30,256c-0.7,59.6,25.2,116.6,67.3,158.7c50.4,50.4,120.8,73.7,193.4,62.6
	c34.3-5.3,65.9-21.1,93.8-41.7c45.8-33.8,72.5-77.8,79.5-149C473.2,193.2,431,174.3,431,174.3z"/>
<g id="XMLID_13_">
	<path id="XMLID_10_" class="st0" d="M194.2,42.9c-1.9,0.6-3.1,2.4-3.1,4.3v1.6c5-0.4,10.5-0.7,16.9-0.7c0.5,0,0.8,0.1,1.2,0.1V38.1
		C201,40.5,195.7,42.4,194.2,42.9z"/>
	<path id="XMLID_9_" class="st0" d="M208.1,84.5c-6.4,0-12-0.3-16.9-0.7v2.1c0,2,1.3,3.7,3.2,4.3c2.5,0.8,6.4,2.2,15,4.6l0-10.6
		C208.9,84.3,208.5,84.5,208.1,84.5z"/>
	<path id="XMLID_8_" class="st0" d="M222.8,66.3c0-4.6-8.6-9.1-14.7-9.1c-20.5,0-32.4,2.6-38.8,4.9c-1.8,0.6-3,2.4-3,4.3
		s1.2,3.7,3.1,4.3c6.2,2.2,18.1,4.7,38.8,4.7C214.8,75.4,222.8,70.7,222.8,66.3L222.8,66.3z"/>
	<path id="XMLID_7_" class="st0" d="M215.8,9.4l-18.2,0c-2.1,0-3.9,1.4-4.4,3.4c-0.5,1.9,0.3,4.1,2.1,5.1c6.2,3.6,11.1,7.4,13.3,11
		c11.5-3.2,22.7-5.5,33.6-7C241.2,17.5,231.2,9.4,215.8,9.4z"/>
	<path id="XMLID_6_" class="st0" d="M193.6,120.3c0.6,1.9,2.4,3.1,4.3,3.1H216c14.1,0,24.4-7.8,25.7-12.3c-12-1.7-23.3-4.3-33.5-7.1
		c-2.1,3-4.8,5.1-13,11.2C193.6,116.4,193,118.5,193.6,120.3z"/>
	<path id="XMLID_5_" class="st0" d="M280,52.7c-7.5,0-13.6,6.1-13.6,13.6c0,7.5,6.1,13.6,13.6,13.6c7.5,0,13.6-6.1,13.6-13.6
		S287.6,52.6,280,52.7z"/>
	<path id="XMLID_4_" class="st0" d="M354.8,69.2c1.5-1.7,1.5-4.2,0-5.9c-7.3-8.5-16.1-15.4-26.2-20.7c-4.7,5.9-7.7,14.3-7.7,23.7
		c0,9.5,3.1,18.1,8,24C338.3,85.1,347.1,78.3,354.8,69.2z"/>
	<path id="XMLID_11_" class="st0" d="M311.9,66.3c0-10.7,3.1-20.4,8.3-27.6c-27.2-11.4-62.9-12.6-101.8-2.9v14.5
		c7,2.9,13.5,8.4,13.5,16c0,7.6-6.6,13.1-13.5,16v15c29.9,7.4,69.4,11.4,102.2-2.9C315.2,87,311.8,77.1,311.9,66.3z M280.1,89
		c-12.5,0-22.7-10.2-22.7-22.7c0-12.5,10.2-22.7,22.7-22.7c12.5,0,22.7,10.2,22.7,22.7C302.8,78.8,292.6,89,280.1,89z"/>
</g>
</svg>
