<?xml version="1.0" encoding="utf-8"?>
<!-- Generator: Adobe Illustrator 19.0.0, SVG Export Plug-In . SVG Version: 6.00 Build 0)  -->
<svg version="1.1" id="Layer_1" xmlns="http://www.w3.org/2000/svg" xmlns:xlink="http://www.w3.org/1999/xlink" x="0px" y="0px"
	 viewBox="0 0 465.5 124.6" style="enable-background:new 0 0 465.5 124.6;" xml:space="preserve">
<style type="text/css">
	.st0{fill:#F3F3F3;}
</style>
<g id="XMLID_54_">
	<path id="XMLID_55_" class="st0" d="M11.2,35.4c1.5-1.9,3.3-3.4,5.3-4.6c2-1.2,4.3-1.7,6.9-1.7c2.1,0,4,0.4,5.7,1.2
		c1.7,0.8,3.2,2,4.4,3.6c1.2,1.6,2.1,3.5,2.8,5.9c0.6,2.3,1,5,1,8c0,2.7-0.4,5.2-1.1,7.5c-0.7,2.3-1.8,4.3-3.1,6c-1.4,1.7-3,3-5,4
		c-2,1-4.2,1.5-6.6,1.5c-2.2,0-4.1-0.4-5.7-1.1c-1.6-0.8-3-1.8-4.2-3.1v16.1H5.1V29.8h3.9c0.9,0,1.5,0.4,1.7,1.3L11.2,35.4z
		 M11.5,57.5c1.2,1.6,2.5,2.7,3.9,3.3c1.4,0.6,3,1,4.7,1c3.4,0,6-1.2,7.8-3.6c1.8-2.4,2.7-5.9,2.7-10.4c0-2.4-0.2-4.4-0.6-6.1
		s-1-3.1-1.8-4.2c-0.8-1.1-1.8-1.9-2.9-2.4c-1.2-0.5-2.5-0.8-3.9-0.8c-2.1,0-3.9,0.5-5.5,1.4c-1.6,1-3,2.3-4.3,4.1V57.5z"/>
	<path id="XMLID_58_" class="st0" d="M51.5,37.1c1.2-2.5,2.6-4.4,4.2-5.8c1.7-1.4,3.7-2.1,6.2-2.1c0.8,0,1.5,0.1,2.2,0.3
		s1.3,0.4,1.9,0.8L65.6,35c-0.1,0.6-0.5,0.9-1.1,0.9c-0.3,0-0.8-0.1-1.5-0.2s-1.4-0.2-2.2-0.2c-1.2,0-2.2,0.2-3.1,0.5
		c-0.9,0.3-1.7,0.8-2.4,1.5c-0.7,0.7-1.3,1.5-1.9,2.4c-0.6,1-1.1,2.1-1.5,3.3v23h-6.4V29.8h3.7c0.7,0,1.2,0.1,1.4,0.4
		c0.3,0.3,0.4,0.7,0.5,1.4L51.5,37.1z"/>
	<path id="XMLID_60_" class="st0" d="M85.5,29.2c2.7,0,5.1,0.4,7.2,1.3c2.1,0.9,4,2.1,5.5,3.8c1.5,1.6,2.7,3.6,3.5,5.9
		c0.8,2.3,1.2,4.9,1.2,7.8c0,2.9-0.4,5.5-1.2,7.8c-0.8,2.3-2,4.3-3.5,5.9c-1.5,1.6-3.3,2.9-5.5,3.8c-2.1,0.9-4.5,1.3-7.2,1.3
		c-2.7,0-5.1-0.4-7.3-1.3s-4-2.1-5.5-3.8c-1.5-1.6-2.7-3.6-3.5-5.9c-0.8-2.3-1.2-4.9-1.2-7.8c0-2.9,0.4-5.4,1.2-7.8
		c0.8-2.3,2-4.3,3.5-5.9c1.5-1.6,3.3-2.9,5.5-3.8C80.4,29.6,82.8,29.2,85.5,29.2z M85.5,61.7c3.6,0,6.3-1.2,8.1-3.6
		c1.8-2.4,2.7-5.8,2.7-10.1c0-4.3-0.9-7.7-2.7-10.2c-1.8-2.4-4.5-3.6-8.1-3.6c-1.8,0-3.4,0.3-4.8,0.9c-1.4,0.6-2.5,1.5-3.4,2.7
		c-0.9,1.2-1.6,2.6-2,4.3c-0.4,1.7-0.7,3.7-0.7,5.8c0,4.3,0.9,7.7,2.7,10.1C79.2,60.5,81.9,61.7,85.5,61.7z"/>
	<path id="XMLID_63_" class="st0" d="M117.8,29.8v39.2c0,1.5-0.2,2.8-0.6,4.1c-0.4,1.3-1,2.4-1.8,3.3c-0.8,0.9-1.9,1.7-3.2,2.2
		c-1.3,0.5-2.9,0.8-4.7,0.8c-0.8,0-1.5-0.1-2.1-0.2s-1.3-0.3-1.9-0.5l0.3-3.5c0-0.2,0.1-0.4,0.2-0.5c0.1-0.1,0.3-0.2,0.4-0.2
		c0.2,0,0.4,0,0.7,0c0.3,0,0.7,0,1.1,0c1.9,0,3.2-0.4,4-1.3c0.8-0.9,1.2-2.3,1.2-4.2V29.8H117.8z M119.1,18.3c0,0.6-0.1,1.2-0.4,1.7
		s-0.6,1-1,1.4c-0.4,0.4-0.9,0.8-1.5,1c-0.6,0.2-1.1,0.4-1.8,0.4s-1.2-0.1-1.7-0.4c-0.5-0.2-1-0.6-1.4-1c-0.4-0.4-0.7-0.9-1-1.4
		c-0.2-0.5-0.4-1.1-0.4-1.7c0-0.6,0.1-1.2,0.4-1.8c0.2-0.6,0.6-1.1,1-1.5c0.4-0.4,0.9-0.8,1.4-1c0.5-0.2,1.1-0.4,1.7-0.4
		s1.2,0.1,1.8,0.4c0.6,0.2,1,0.6,1.5,1c0.4,0.4,0.8,0.9,1,1.5C119,17.1,119.1,17.7,119.1,18.3z"/>
	<path id="XMLID_66_" class="st0" d="M157.9,61.1c-0.8,1-1.7,1.8-2.8,2.5c-1.1,0.7-2.3,1.3-3.5,1.7c-1.3,0.5-2.6,0.8-3.9,1
		c-1.3,0.2-2.7,0.3-4,0.3c-2.5,0-4.8-0.4-7-1.3s-4-2.1-5.5-3.7c-1.5-1.6-2.8-3.7-3.6-6.1c-0.9-2.4-1.3-5.2-1.3-8.4
		c0-2.5,0.4-4.9,1.2-7.1c0.8-2.2,1.9-4.1,3.4-5.7c1.5-1.6,3.3-2.9,5.4-3.8c2.1-0.9,4.5-1.4,7.1-1.4c2.2,0,4.2,0.4,6.1,1.1
		c1.9,0.7,3.5,1.8,4.8,3.2c1.4,1.4,2.4,3.1,3.2,5.1c0.8,2,1.2,4.3,1.2,6.9c0,1-0.1,1.7-0.3,2c-0.2,0.3-0.6,0.5-1.2,0.5h-24.4
		c0.1,2.3,0.4,4.3,1,6c0.6,1.7,1.4,3.1,2.4,4.3c1,1.1,2.2,2,3.6,2.6c1.4,0.6,3,0.8,4.7,0.8c1.6,0,3-0.2,4.2-0.6
		c1.2-0.4,2.2-0.8,3-1.2c0.8-0.4,1.5-0.8,2.1-1.2c0.6-0.4,1-0.6,1.5-0.6c0.5,0,0.9,0.2,1.2,0.6L157.9,61.1z M152.7,44
		c0-1.5-0.2-2.8-0.6-4.1c-0.4-1.2-1-2.3-1.8-3.2c-0.8-0.9-1.8-1.6-2.9-2.1c-1.2-0.5-2.5-0.7-3.9-0.7c-3.1,0-5.5,0.9-7.3,2.7
		c-1.8,1.8-2.9,4.3-3.3,7.4H152.7z"/>
	<path id="XMLID_69_" class="st0" d="M191.7,36.3c-0.2,0.3-0.4,0.5-0.6,0.6c-0.2,0.1-0.5,0.2-0.8,0.2c-0.4,0-0.8-0.1-1.2-0.4
		c-0.4-0.3-1-0.6-1.6-1c-0.6-0.4-1.4-0.7-2.3-1c-0.9-0.3-2.1-0.5-3.4-0.5c-1.8,0-3.4,0.3-4.8,1c-1.4,0.6-2.5,1.6-3.4,2.8
		c-0.9,1.2-1.6,2.7-2.1,4.4c-0.5,1.7-0.7,3.6-0.7,5.7c0,2.2,0.3,4.2,0.8,5.9c0.5,1.7,1.2,3.2,2.1,4.3c0.9,1.2,2,2.1,3.3,2.7
		c1.3,0.6,2.8,0.9,4.4,0.9c1.6,0,2.8-0.2,3.9-0.6c1-0.4,1.8-0.8,2.5-1.2c0.7-0.5,1.2-0.9,1.7-1.2c0.4-0.4,0.9-0.6,1.3-0.6
		c0.5,0,0.9,0.2,1.2,0.6l1.8,2.3c-0.8,1-1.7,1.8-2.7,2.5c-1,0.7-2.1,1.3-3.3,1.7c-1.2,0.5-2.4,0.8-3.7,1c-1.3,0.2-2.6,0.3-3.9,0.3
		c-2.3,0-4.4-0.4-6.4-1.3c-2-0.8-3.7-2.1-5.1-3.7c-1.4-1.6-2.6-3.6-3.4-5.9c-0.8-2.3-1.2-5-1.2-8c0-2.7,0.4-5.2,1.1-7.5
		c0.8-2.3,1.9-4.3,3.3-6c1.5-1.7,3.2-3,5.4-3.9s4.6-1.4,7.3-1.4c2.6,0,4.8,0.4,6.8,1.2c2,0.8,3.7,2,5.2,3.5L191.7,36.3z"/>
	<path id="XMLID_71_" class="st0" d="M234.5,66.2h-6.4V35.1h-18.8V57c0,1.5,0.4,2.7,1.1,3.4c0.7,0.7,1.7,1.1,2.9,1.1
		c0.7,0,1.3-0.1,1.7-0.3c0.5-0.2,0.9-0.4,1.3-0.6c0.4-0.2,0.7-0.4,0.9-0.6c0.3-0.2,0.5-0.3,0.7-0.3c0.3,0,0.6,0.2,0.9,0.6l1.9,3.1
		c-1.1,1-2.4,1.8-4,2.4c-1.6,0.6-3.2,0.9-4.8,0.9c-2.9,0-5.1-0.8-6.6-2.4c-1.5-1.6-2.3-3.9-2.3-6.9V35.1h-4.4c-0.4,0-0.7-0.1-1-0.3
		s-0.4-0.6-0.4-1.1v-2.6l6-0.8l1.5-11.2c0.1-0.4,0.2-0.7,0.5-0.9c0.3-0.2,0.6-0.3,1-0.3h3.2v12.6h25.2V66.2z M236.1,18.1
		c0,0.6-0.1,1.2-0.4,1.7s-0.6,1-1,1.4c-0.4,0.4-0.9,0.7-1.5,1c-0.6,0.2-1.1,0.4-1.8,0.4c-0.6,0-1.2-0.1-1.7-0.4
		c-0.5-0.2-1-0.6-1.4-1c-0.4-0.4-0.7-0.9-1-1.4c-0.2-0.5-0.4-1.1-0.4-1.7c0-0.6,0.1-1.2,0.4-1.8c0.2-0.6,0.6-1.1,1-1.5
		c0.4-0.4,0.9-0.8,1.4-1c0.5-0.2,1.1-0.4,1.7-0.4c0.6,0,1.2,0.1,1.8,0.4c0.6,0.2,1,0.6,1.5,1c0.4,0.4,0.8,0.9,1,1.5
		C236,16.9,236.1,17.5,236.1,18.1z"/>
	<path id="XMLID_74_" class="st0" d="M270.2,32.5c0,0.5-0.1,0.9-0.2,1.3s-0.4,0.8-0.6,1.1l-19.8,26.3h19.9v5H242v-2.7
		c0-0.3,0.1-0.7,0.2-1.1c0.1-0.4,0.4-0.8,0.6-1.2l19.9-26.5h-19.6v-5h27V32.5z"/>
	<path id="XMLID_76_" class="st0" d="M306.5,61.1c-0.8,1-1.7,1.8-2.8,2.5c-1.1,0.7-2.3,1.3-3.5,1.7c-1.3,0.5-2.6,0.8-3.9,1
		c-1.3,0.2-2.7,0.3-4,0.3c-2.5,0-4.8-0.4-7-1.3s-4-2.1-5.5-3.7c-1.5-1.6-2.8-3.7-3.6-6.1c-0.9-2.4-1.3-5.2-1.3-8.4
		c0-2.5,0.4-4.9,1.2-7.1c0.8-2.2,1.9-4.1,3.4-5.7c1.5-1.6,3.3-2.9,5.4-3.8c2.1-0.9,4.5-1.4,7.1-1.4c2.2,0,4.2,0.4,6.1,1.1
		c1.9,0.7,3.5,1.8,4.8,3.2c1.4,1.4,2.4,3.1,3.2,5.1c0.8,2,1.2,4.3,1.2,6.9c0,1-0.1,1.7-0.3,2c-0.2,0.3-0.6,0.5-1.2,0.5h-24.4
		c0.1,2.3,0.4,4.3,1,6c0.6,1.7,1.3,3.1,2.4,4.3c1,1.1,2.2,2,3.6,2.6c1.4,0.6,3,0.8,4.7,0.8c1.6,0,3-0.2,4.2-0.6
		c1.2-0.4,2.2-0.8,3-1.2c0.8-0.4,1.5-0.8,2.1-1.2c0.6-0.4,1-0.6,1.5-0.6c0.5,0,0.9,0.2,1.2,0.6L306.5,61.1z M301.3,44
		c0-1.5-0.2-2.8-0.6-4.1c-0.4-1.2-1-2.3-1.8-3.2c-0.8-0.9-1.8-1.6-2.9-2.1c-1.2-0.5-2.5-0.7-3.9-0.7c-3.1,0-5.5,0.9-7.3,2.7
		c-1.8,1.8-2.9,4.3-3.3,7.4H301.3z"/>
	<path id="XMLID_79_" class="st0" d="M321,37.1c1.2-2.5,2.6-4.4,4.2-5.8c1.7-1.4,3.7-2.1,6.2-2.1c0.8,0,1.5,0.1,2.2,0.3
		c0.7,0.2,1.3,0.4,1.9,0.8L335,35c-0.1,0.6-0.5,0.9-1.1,0.9c-0.3,0-0.8-0.1-1.5-0.2c-0.6-0.1-1.4-0.2-2.2-0.2
		c-1.2,0-2.2,0.2-3.1,0.5c-0.9,0.3-1.7,0.8-2.4,1.5s-1.3,1.5-1.9,2.4c-0.6,1-1.1,2.1-1.5,3.3v23h-6.4V29.8h3.7
		c0.7,0,1.2,0.1,1.4,0.4c0.3,0.3,0.4,0.7,0.5,1.4L321,37.1z"/>
</g>
<g id="XMLID_3_">
	<path id="XMLID_12_" class="st0" d="M370.9,51.9c-0.6,1-0.5,2.2,0.3,3l0.6,0.7c2-2,4.3-4.2,7-6.7c0.2-0.2,0.4-0.3,0.6-0.4l-3.8-4.4
		C373,48.3,371.4,51.1,370.9,51.9z"/>
	<path id="XMLID_11_" class="st0" d="M392.5,64.6c-2.8,2.4-5.3,4.4-7.6,6.1l0.8,0.9c0.7,0.9,2,1.1,3,0.7c1.4-0.6,3.6-1.4,8.2-3.6
		l-4-4.6C392.8,64.3,392.7,64.4,392.5,64.6z"/>
	<path id="XMLID_10_" class="st0" d="M392,51.2c-1.7-2-7.1-0.7-9.8,1.6c-8.9,7.7-13,13.3-14.9,16.6c-0.6,0.9-0.4,2.2,0.3,3
		c0.7,0.8,1.9,1.1,2.9,0.7c3.5-1.4,9.6-4.7,18.5-12.5C392,58.2,393.7,53.1,392,51.2L392,51.2z"/>
	<path id="XMLID_9_" class="st0" d="M367.7,29.4l-7.8,6.8c-0.9,0.8-1.2,2-0.6,3.1c0.5,1,1.7,1.6,2.8,1.4c4-0.8,7.5-1,9.9-0.2
		c3.8-5.7,7.7-10.9,11.9-15.6C381.7,23.3,374.3,23.6,367.7,29.4z"/>
	<path id="XMLID_8_" class="st0" d="M399.6,85.5c1,0.6,2.2,0.5,3-0.3l7.8-6.8c6.1-5.3,7.6-12.5,6.5-14.9c-5.8,3.8-11.7,6.9-17.1,9.5
		c0.2,2.1-0.2,4-1.4,9.7C398.2,83.9,398.7,85,399.6,85.5z"/>
	<path id="XMLID_7_" class="st0" d="M411.6,23.9c-3.2,2.8-3.6,7.7-0.8,11s7.7,3.6,11,0.8c3.2-2.8,3.6-7.7,0.8-11
		S414.8,21.1,411.6,23.9z"/>
	<path id="XMLID_6_" class="st0" d="M450.1,3.1c0-1.3-0.9-2.4-2.2-2.6c-6.3-0.9-12.7-0.6-19.1,0.9c0.2,4.3,2,9.1,5.5,13.1
		c3.5,4.1,8.1,6.6,12.4,7.3C448.9,16.1,450.1,9.9,450.1,3.1z"/>
	<path id="XMLID_15_" class="st0" d="M430.5,17.9c-4-4.6-6.3-10-6.8-15.1c-16,5.3-31.9,18.2-45,36.9l5.4,6.3c4.1-1.3,9-1.4,11.8,1.9
		c2.9,3.3,2.1,8.1,0.2,12l5.6,6.5c15.7-8,34.2-21.1,43-39.6C439.7,25.6,434.5,22.6,430.5,17.9z M425.2,39.6
		c-5.4,4.7-13.6,4.1-18.3-1.3c-4.7-5.4-4.1-13.6,1.3-18.3c5.4-4.7,13.6-4.1,18.3,1.3C431.2,26.7,430.6,34.9,425.2,39.6z"/>
</g>
<path id="XMLID_14_" class="st0" d="M344.3,72.4c-18.3,12.3-51.8,18.2-77.5,20c-80,5.8-133.8,1.3-168.5-2
	c-27.5-2.6,88.3,14.4,121.8,15.3c37.5,1,68.3,3.8,105.3-6.8s38.5-13.5,47-20.5"/>
</svg>
