<?xml version="1.0" encoding="utf-8"?>
<!-- Generator: Adobe Illustrator 19.0.0, SVG Export Plug-In . SVG Version: 6.00 Build 0)  -->
<svg version="1.1" id="Capa_1" xmlns="http://www.w3.org/2000/svg" xmlns:xlink="http://www.w3.org/1999/xlink" x="0px" y="0px"
	 viewBox="-130 222 350 350" style="enable-background:new -130 222 350 350;" xml:space="preserve">
<style type="text/css">
	.st0{fill:#E8E8E8;}
</style>
<g>
	<path class="st0" d="M45,393.2c38.9,0,70.5-38.3,70.5-85.6c0-47.3-10.4-85.6-70.5-85.6s-70.5,38.3-70.5,85.6
		C-25.5,354.9,6.1,393.2,45,393.2z"/>
	<path class="st0" d="M-88.1,523.9C-88.1,521-88.1,523-88.1,523.9L-88.1,523.9z"/>
	<path class="st0" d="M178.1,526.1C178.1,525.3,178.1,520.6,178.1,526.1L178.1,526.1z"/>
	<path class="st0" d="M177.9,520.4c-1.3-82.3-12.1-105.8-94.4-120.7c0,0-11.6,14.8-38.6,14.8S6.4,399.7,6.4,399.7
		c-81.4,14.7-92.8,37.8-94.3,118c-0.1,6.5-0.2,6.9-0.2,6.1c0,1.4,0,4.1,0,8.7c0,0,19.6,39.5,133.1,39.5
		c113.5,0,133.1-39.5,133.1-39.5c0-3,0-5,0-6.4C178.1,526.6,178,525.7,177.9,520.4z"/>
</g>
</svg>
