<?xml version="1.0" encoding="utf-8"?>
<!-- Generator: Adobe Illustrator 19.0.0, SVG Export Plug-In . SVG Version: 6.00 Build 0)  -->
<svg version="1.1" id="Layer_1" xmlns="http://www.w3.org/2000/svg" xmlns:xlink="http://www.w3.org/1999/xlink" x="0px" y="0px"
	 viewBox="-49 141 512 512" style="enable-background:new -49 141 512 512;" xml:space="preserve">
<style type="text/css">
	.st0{fill:#EFEFEF;}
</style>
<path class="st0" d="M25.7,469.1c-2.9,5.8-1.8,12.8,2.8,17.3l3.7,3.7c10.6-12.6,22.9-26.2,37.9-41.2c1.1-1.1,2.1-1.6,3.2-2.5
	l-23.6-23.6C36,447.6,28,464.5,25.7,469.1z"/>
<path class="st0" d="M155,533.8c-15,15-28.6,27.4-41.1,38l5,5c4.6,4.6,11.7,5.7,17.5,2.7c7.8-4,20-9.8,45.9-24.2l-24.7-24.7
	C156.6,531.6,156.1,532.7,155,533.8z"/>
<path class="st0" d="M147,456.9c-10.8-10.8-41.3-1.1-55.6,13.2C43.4,518,21.8,552,12.1,572.1c-2.8,5.7-1.6,12.6,2.9,17.1
	c4.5,4.5,11.4,5.7,17.2,2.9c19.6-9.5,53.2-31.1,101.6-79.5C149.5,496.8,157.3,467.2,147,456.9L147,456.9z"/>
<path class="st0" d="M-2.2,340.7l-42.4,42.4c-4.8,4.8-5.8,12.2-2.4,18.1c3.3,5.8,10.3,8.8,16.9,7c22.9-6.1,43.1-8.7,56.7-5.3
	c19.3-34.4,40.1-66,62.1-94.7C75.9,300.1,33.9,304.6-2.2,340.7z"/>
<path class="st0" d="M204.9,651.4c5.8,2.9,12.8,1.8,17.3-2.8l42.4-42.4c32.8-32.9,38.6-75.2,31.2-88.7c-32,24.2-64.5,44.5-94.8,61.6
	c2.1,11.8,0.7,23.3-4.2,56.7C195.8,642.3,199.2,648.5,204.9,651.4z"/>
<path class="st0" d="M248.8,291.5c-17.5,17.5-17.5,46.1,0,63.6c17.5,17.5,46.1,17.5,63.6,0s17.5-46.1,0-63.6
	S266.3,273.9,248.8,291.5z"/>
<path class="st0" d="M462.1,155.6c-0.5-7.4-6.4-13.3-13.8-13.8c-36.8-2.8-73.5,1.8-109.5,12.8c2.7,24.7,15.5,51.5,37.3,73.3
	c22.1,22.1,49.6,34.9,74.7,37.2C460.5,231.1,465.1,194.8,462.1,155.6z"/>
<path class="st0" d="M354.9,249c-25-25-40.2-54.9-45.1-84c-90.1,36.9-176.3,117.6-244.4,230.9l33.9,33.9c23.1-9.4,51.2-11.9,69,5.9
	c17.8,17.8,15.3,45.9,5.9,69l35,35c87.2-52.6,188.7-135.3,231.9-245.5C411.1,289.7,380.2,274.4,354.9,249z M333.7,376.3
	c-29.2,29.2-76.8,29.2-106.1,0c-29.2-29.2-29.2-76.8,0-106.1s76.8-29.2,106.1,0C362.9,299.5,362.9,347.1,333.7,376.3z"/>
</svg>
