<?xml version="1.0" encoding="utf-8"?>
<!-- Generator: Adobe Illustrator 19.0.0, SVG Export Plug-In . SVG Version: 6.00 Build 0)  -->
<svg version="1.1" id="Capa_1" xmlns="http://www.w3.org/2000/svg" xmlns:xlink="http://www.w3.org/1999/xlink" x="0px" y="0px"
	 viewBox="-49 141.4 511.6 511.6" style="enable-background:new -49 141.4 511.6 511.6;" xml:space="preserve">
<style type="text/css">
	.st0{fill:#EFEFEF;}
</style>
<g>
	<g>
		<path class="st0" d="M444.4,488.5H-30.7c-5,0-9.2,1.8-12.9,5.4c-3.6,3.6-5.4,7.9-5.4,12.9v73.1c0,4.9,1.8,9.2,5.4,12.8
			c3.6,3.6,7.9,5.4,12.9,5.4h475.1c4.9,0,9.2-1.8,12.9-5.4c3.6-3.6,5.4-7.9,5.4-12.8v-73.1c0-4.9-1.8-9.2-5.4-12.9
			C453.6,490.4,449.3,488.5,444.4,488.5z M426.1,561.6H243.4v-36.5h182.7L426.1,561.6L426.1,561.6z"/>
		<path class="st0" d="M444.4,342.4H-30.7c-5,0-9.2,1.8-12.9,5.4c-3.6,3.6-5.4,7.9-5.4,12.8v73.1c0,4.9,1.8,9.2,5.4,12.8
			c3.6,3.6,7.9,5.4,12.9,5.4h475.1c4.9,0,9.2-1.8,12.9-5.4c3.6-3.6,5.4-7.9,5.4-12.8v-73.1c0-4.9-1.8-9.2-5.4-12.8
			C453.6,344.2,449.3,342.4,444.4,342.4z M426.1,415.5H133.7v-36.5h292.4V415.5z"/>
		<path class="st0" d="M457.2,201.6c-3.6-3.6-7.9-5.4-12.9-5.4H-30.7c-5,0-9.2,1.8-12.9,5.4c-3.6,3.6-5.4,7.9-5.4,12.9v73.1
			c0,5,1.8,9.2,5.4,12.9c3.6,3.6,7.9,5.4,12.9,5.4h475.1c4.9,0,9.2-1.8,12.9-5.4c3.6-3.6,5.4-7.9,5.4-12.9v-73.1
			C462.6,209.5,460.8,205.2,457.2,201.6z M426.1,269.3H316.4v-36.5h109.6V269.3z"/>
	</g>
</g>
</svg>
