<?xml version="1.0" encoding="utf-8"?>
<!-- Generator: Adobe Illustrator 19.0.0, SVG Export Plug-In . SVG Version: 6.00 Build 0)  -->
<svg version="1.1" id="Layer_1" xmlns="http://www.w3.org/2000/svg" xmlns:xlink="http://www.w3.org/1999/xlink" x="0px" y="0px"
	 viewBox="-236 238 26 26" style="enable-background:new -236 238 26 26;" xml:space="preserve">
<style type="text/css">
	.st0{fill:#A8CAA5;}
</style>
<path class="st0" d="M-235.7,252c-0.2-0.2-0.3-0.5-0.3-0.7s0.1-0.5,0.3-0.7l1.4-1.4c0.4-0.4,1-0.4,1.4,0l0.1,0.1l5.5,5.9
	c0.2,0.2,0.5,0.2,0.7,0l13.4-13.9h0.1l0,0c0.4-0.4,1-0.4,1.4,0l1.4,1.4c0.4,0.4,0.4,1,0,1.4l0,0l-16,16.6c-0.2,0.2-0.4,0.3-0.7,0.3
	s-0.5-0.1-0.7-0.3l-7.8-8.4C-235.5,252.3-235.7,252-235.7,252z"/>
</svg>
